<?xml version="1.0" encoding="UTF-8" standalone="no" ?>
<!DOCTYPE svg PUBLIC "-//W3C//DTD SVG 1.1//EN" "http://www.w3.org/Graphics/SVG/1.1/DTD/svg11.dtd">
<svg xmlns="http://www.w3.org/2000/svg" xmlns:xlink="http://www.w3.org/1999/xlink" version="1.1" width="1952" height="735" viewBox="0 0 1952 735" xml:space="preserve">
<desc>Created with Fabric.js 5.2.4</desc>
<defs>
</defs>
<rect x="0" y="0" width="100%" height="100%" fill="transparent"></rect>
<g transform="matrix(1 0 0 1 976 367.5)" id="0c1eaea6-fee6-41ed-a04a-451658e72b43"  >
<rect style="stroke: none; stroke-width: 1; stroke-dasharray: none; stroke-linecap: butt; stroke-dashoffset: 0; stroke-linejoin: miter; stroke-miterlimit: 4; fill: rgb(255,255,255); fill-rule: nonzero; opacity: 1; visibility: hidden;" vector-effect="non-scaling-stroke"  x="-976" y="-367.5" rx="0" ry="0" width="1952" height="735" />
</g>
<g transform="matrix(0 0 0 0 0 0)" id="f98d05d0-0d3b-4011-97ed-5585459203f8"  >
</g>
<g transform="matrix(0 0 0 0 0 0)"  >
<g style=""   >
</g>
</g>
<g transform="matrix(0 0 0 0 0 0)"  >
<g style=""   >
</g>
</g>
<g transform="matrix(0 0 0 0 0 0)"  >
<g style=""   >
</g>
</g>
<g transform="matrix(0 0 0 0 0 0)"  >
<g style=""   >
</g>
</g>
<g transform="matrix(1 0 0 1 1694.31 367.5)"  >
<path style="stroke: none; stroke-width: 0.2; stroke-dasharray: none; stroke-linecap: butt; stroke-dashoffset: 0; stroke-linejoin: round; stroke-miterlimit: 4; fill: rgb(255,255,255); fill-opacity: 0.87; fill-rule: nonzero; opacity: 1;" vector-effect="non-scaling-stroke"  transform=" translate(-1694.31, -367.47)" d="M 1436.62 603.304 L 1493.01 460.705 L 1655.83 460.705 L 1578.56 244.39 L 1675.2 0.000528336 L 1952 734.933 L 1747.87 734.933 L 1700.57 603.304 L 1436.62 603.304 Z" stroke-linecap="round" />
</g>
<g transform="matrix(1 0 0 1 1030.3 367.5)"  >
<path style="stroke: none; stroke-width: 0.2; stroke-dasharray: none; stroke-linecap: butt; stroke-dashoffset: 0; stroke-linejoin: round; stroke-miterlimit: 4; fill: rgb(165,180,252); fill-rule: nonzero; opacity: 1;" vector-effect="non-scaling-stroke"  transform=" translate(-1030.3, -367.47)" d="M 1262.47 734.935 L 1558.79 0.00156593 L 1362.34 0.0025425 L 1159.64 474.933 L 1015.5 0.00351906 L 864.499 0.00351906 L 709.731 474.933 L 600.585 258.517 L 501.812 562.819 L 602.096 734.935 L 795.427 734.935 L 935.284 309.025 L 1068.63 734.935 L 1262.47 734.935 Z" stroke-linecap="round" />
</g>
<g transform="matrix(1 0 0 1 262.07 367.5)"  >
<path style="stroke: none; stroke-width: 0.2; stroke-dasharray: none; stroke-linecap: butt; stroke-dashoffset: 0; stroke-linejoin: round; stroke-miterlimit: 4; fill: rgb(255,255,255); fill-opacity: 0.87; fill-rule: nonzero; opacity: 1;" vector-effect="non-scaling-stroke"  transform=" translate(-262.07, -367.47)" d="M 186.476 482.643 L 307.479 482.643 C 344.133 482.643 376.772 478.552 405.396 470.37 L 436.689 373.962 L 524.148 104.516 C 517.484 93.9535 509.876 83.9667 501.324 74.5569 C 456.419 24.852 390.719 0.000406265 304.222 0.000406265 L -0.0000038147 0.000406265 L -0.0000038147 734.933 L 186.476 734.933 L 186.476 482.643 Z M 346.642 169.079 C 364.182 186.732 372.951 210.355 372.951 239.95 C 372.951 269.772 365.238 293.424 349.813 310.906 C 332.903 330.331 301.766 340.043 256.404 340.043 L 186.476 340.043 L 186.476 142.598 L 256.918 142.598 C 299.195 142.598 329.103 151.425 346.642 169.079 Z" stroke-linecap="round" />
</g>
<g transform="matrix(0 0 0 0 0 0)"  >
<g style=""   >
</g>
</g>
<g transform="matrix(0 0 0 0 0 0)"  >
<g style=""   >
</g>
</g>
<g transform="matrix(0 0 0 0 0 0)"  >
<g style=""   >
</g>
</g>
<g transform="matrix(0 0 0 0 0 0)"  >
<g style=""   >
</g>
</g>
<g transform="matrix(0 0 0 0 0 0)"  >
<g style=""   >
</g>
</g>
<g transform="matrix(0 0 0 0 0 0)"  >
<g style=""   >
</g>
</g>
<g transform="matrix(0 0 0 0 0 0)"  >
<g style=""   >
</g>
</g>
<g transform="matrix(0 0 0 0 0 0)"  >
<g style=""   >
</g>
</g>
<g transform="matrix(0 0 0 0 0 0)"  >
<g style=""   >
</g>
</g>
<g transform="matrix(NaN NaN NaN NaN 0 0)"  >
<g style=""   >
</g>
</g>
<g transform="matrix(NaN NaN NaN NaN 0 0)"  >
<g style=""   >
</g>
</g>
<g transform="matrix(NaN NaN NaN NaN 0 0)"  >
<g style=""   >
</g>
</g>
<g transform="matrix(NaN NaN NaN NaN 0 0)"  >
<g style=""   >
</g>
</g>
</svg>